<?xml version="1.0" encoding="UTF-8" standalone="no"?>
<!-- Created with Inkscape (http://www.inkscape.org/) -->

<svg
   xmlns:dc="http://purl.org/dc/elements/1.1/"
   xmlns:cc="http://creativecommons.org/ns#"
   xmlns:rdf="http://www.w3.org/1999/02/22-rdf-syntax-ns#"
   xmlns:svg="http://www.w3.org/2000/svg"
   xmlns="http://www.w3.org/2000/svg"
   xmlns:sodipodi="http://sodipodi.sourceforge.net/DTD/sodipodi-0.dtd"
   xmlns:inkscape="http://www.inkscape.org/namespaces/inkscape"
   id="svg3443"
   sodipodi:version="0.32"
   inkscape:version="0.92.3 (unknown)"
   width="2656.5593"
   height="1109.368"
   version="1.0"
   sodipodi:docname="workOflow-logo-plain-rect.svg"
   inkscape:output_extension="org.inkscape.output.svg.inkscape">
  <metadata
     id="metadata3448">
    <rdf:RDF>
      <cc:Work
         rdf:about="">
        <dc:format>image/svg+xml</dc:format>
        <dc:type
           rdf:resource="http://purl.org/dc/dcmitype/StillImage" />
        <dc:title></dc:title>
      </cc:Work>
    </rdf:RDF>
  </metadata>
  <defs
     id="defs3446">
    <inkscape:perspective
       sodipodi:type="inkscape:persp3d"
       inkscape:vp_x="0 : 526.18109 : 1"
       inkscape:vp_y="0 : 1000 : 0"
       inkscape:vp_z="744.09448 : 526.18109 : 1"
       inkscape:persp3d-origin="372.04724 : 350.78739 : 1"
       id="perspective3450" />
  </defs>
  <sodipodi:namedview
     inkscape:window-height="1056"
     inkscape:window-width="1879"
     inkscape:pageshadow="2"
     inkscape:pageopacity="0.0"
     guidetolerance="10.0"
     gridtolerance="10.0"
     objecttolerance="10.0"
     borderopacity="1.0"
     bordercolor="#666666"
     pagecolor="#ffffff"
     id="base"
     showgrid="false"
     inkscape:zoom="0.41040621"
     inkscape:cx="1538.5109"
     inkscape:cy="361.93087"
     inkscape:window-x="41"
     inkscape:window-y="1224"
     inkscape:current-layer="svg3443"
     inkscape:window-maximized="1"
     inkscape:object-nodes="true"
     fit-margin-top="0"
     fit-margin-left="0"
     fit-margin-right="0"
     fit-margin-bottom="0"
     inkscape:showpageshadow="false"
     inkscape:object-paths="true"
     inkscape:snap-global="true" />
  <g
     id="g157"
     transform="matrix(2.1898362,0,0,2.1898362,118.25463,-179.64466)"
     inkscape:export-xdpi="37"
     inkscape:export-ydpi="37">
    <g
       transform="matrix(1.1184468,0,0,1.3915368,-131.84479,-125.3624)"
       id="g22">
      <path
         style="fill:#3b3bde;fill-opacity:1;stroke:none"
         d="m 986.2754,457.34495 46.4133,45.59247 c 45.0127,26.54556 121.568,-7.30665 121.568,-7.30665 v -45.86072 c -53.0876,-0.10652 -58.1116,18.8144 -160.6704,-0.31957 z"
         id="path3793-2"
         inkscape:connector-curvature="0"
         sodipodi:nodetypes="cccccc" />
      <path
         style="fill:#3b3bde;fill-opacity:1;stroke:none"
         d="m 712.62388,349.26506 c 41.38831,12.39695 39.96037,-8.55061 51.94938,-12.20674 19.8801,-6.06257 50.35971,10.86899 73.18404,11.1616 L 708.21573,296.42741 Z"
         id="path3793"
         inkscape:connector-curvature="0"
         sodipodi:nodetypes="csccc" />
      <path
         style="fill:#ff9665;fill-opacity:1;fill-rule:evenodd;stroke:none"
         d="m 993.5863,449.45048 c -20.3872,-18.96999 -53.6264,-45.77089 -79.717,-58.08746 -10.5368,-4.9741 -18.69478,-8.52203 -25.73932,-10.26679 -1.96304,-0.48619 -7.76363,-1.02013 -9.4904,-1.30884 -19.37284,-3.23917 -24.66972,5.12126 -25.69231,8.97413 -2.86928,10.81076 10.69094,28.55219 100.55453,70.60332 20.0915,9.40172 70.9853,40.67037 79.1869,43.57258 l 1.1028,-3.99541 c 0,0 -30.7,-29.83183 -44.1461,-45.19972 z"
         id="path3791"
         sodipodi:nodetypes="cssssscccc"
         inkscape:export-filename="/home/olivier/Desktop/text3995.png"
         inkscape:export-xdpi="845.21002"
         inkscape:export-ydpi="845.21002"
         inkscape:connector-curvature="0" />
      <path
         inkscape:connector-curvature="0"
         inkscape:export-ydpi="845.21002"
         inkscape:export-xdpi="845.21002"
         inkscape:export-filename="/home/olivier/Desktop/text3995.png"
         sodipodi:nodetypes="ccscccscc"
         id="path3021"
         d="m 879.22517,365.79427 7.71788,-16.73877 C 849.4243,327.67256 678.25036,244.84284 465.43515,184.07786 c -4.48814,-1.2815 -15.13348,1.84451 -19.7204,0.89676 -96.74223,-28.14834 -380.61096,-66.16143 -371.66599,3.84947 15.42199,56.39222 363.34113,102.3988 638.57512,160.44097 0,0 -0.33521,-7.37392 -2.05674,-15.3948 -3.20381,-14.92707 0.62865,-30.45355 44.42583,-9.83861 43.83165,9.9276 124.2322,41.76262 124.2322,41.76262 z"
         style="fill:#ff9665;fill-opacity:1;fill-rule:evenodd;stroke:none" />
      <path
         style="fill:#ffffff;fill-rule:evenodd;stroke:#000000;stroke-width:2.37221909;stroke-linecap:butt;stroke-linejoin:miter;stroke-miterlimit:4;stroke-dasharray:none;stroke-opacity:1"
         d="M 882.46691,359.16189 C 743.21416,295.69831 534.42558,196.63188 299.13067,163.27473 99.92767,135.03423 70.36894,175.13374 74.82184,189.1145 c 15.50455,48.67961 367.89332,100.91481 636.14253,152.32143 0,0 -0.87096,-29.60513 27.73059,-23.81218 42.25651,8.55862 143.87371,41.11736 143.77195,41.53814 z"
         id="path3454"
         sodipodi:nodetypes="csscsc"
         inkscape:export-filename="/home/olivier/Desktop/text3995.png"
         inkscape:export-xdpi="845.21002"
         inkscape:export-ydpi="845.21002"
         inkscape:connector-curvature="0" />
      <path
         inkscape:connector-curvature="0"
         inkscape:export-ydpi="845.21002"
         inkscape:export-xdpi="845.21002"
         inkscape:export-filename="/home/olivier/Desktop/text3995.png"
         sodipodi:nodetypes="csssc"
         id="path3017"
         d="m 1034.1286,500.19734 c 0,0 -58.1792,-76.07258 -126.5435,-107.51534 -43.5527,-20.03118 -52.3157,-7.94604 -54.0549,-3.16858 -1.50495,4.13401 6.33503,23.79039 94.4609,64.32207 30.3764,13.97104 86.3222,45.94353 86.1375,46.36185 z"
         style="fill:#ffffff;fill-rule:evenodd;stroke:#000000;stroke-width:2.37221909;stroke-linecap:butt;stroke-linejoin:miter;stroke-miterlimit:4;stroke-dasharray:none;stroke-opacity:1" />
      <path
         style="fill:#3b3bde;fill-opacity:1;stroke:none"
         d="m 879.22517,365.79427 c 28.59043,9.14319 117.44873,64.49455 172.64053,86.85093 15.1436,6.13417 38.4101,7.5043 48.9763,7.94576 l 8.1476,-3.90641 c -14.6478,-2.31099 -31.3787,0.6606 -50.3738,-8.6402 -52.6647,-25.78683 -122.5594,-75.88543 -171.67275,-98.98885 z"
         id="path3793-3"
         inkscape:connector-curvature="0"
         sodipodi:nodetypes="csccscc" />
    </g>
    <g
       transform="matrix(0.75558789,0,0,0.56432304,-24.132046,269.21831)"
       id="g131">
      <path
         inkscape:connector-curvature="0"
         id="path106"
         style="font-style:normal;font-variant:normal;font-weight:900;font-stretch:normal;font-size:306.66665649px;line-height:125%;font-family:Cinzel;-inkscape-font-specification:'Cinzel, Heavy';font-variant-ligatures:normal;font-variant-caps:normal;font-variant-numeric:normal;font-feature-settings:normal;text-align:start;letter-spacing:0px;word-spacing:0px;writing-mode:lr-tb;text-anchor:start;fill:#000000;fill-opacity:1;stroke:none;stroke-width:1.14671075px;stroke-linecap:butt;stroke-linejoin:miter;stroke-opacity:1"
         d="m 132.50847,269.61465 c -5.52,3.226 -23.30667,7.2585 -36.49333,7.2585 H -39.531524 v 4.0325 h 3.68 c 10.733334,0 19.626664,11.291 19.626664,25.40475 v 223.80372 c 0,13.7105 -8.89333,25.40475 -19.626664,25.40475 h -3.68 v 4.0325 H 70.25514 v -4.0325 h -3.98667 c -10.73333,0 -19.32,-11.69425 -19.62666,-25.40475 V 430.10813 h 34.04 c 19.01333,0.80651 32.81333,18.95276 32.81333,44.35751 v 1.61299 h 3.06666 V 363.97514 h -3.06666 v 2.01626 c 0,25.40473 -13.8,43.55098 -33.42667,43.95424 H 46.64181 V 297.43889 h 44.46666 c 24.22667,1.20975 38.33333,20.56575 38.33333,52.4225 v 2.82276 l 3.06667,0.40324 z" />
      <path
         inkscape:connector-curvature="0"
         id="path108"
         style="font-style:normal;font-variant:normal;font-weight:900;font-stretch:normal;font-size:306.66665649px;line-height:125%;font-family:Cinzel;-inkscape-font-specification:'Cinzel, Heavy';font-variant-ligatures:normal;font-variant-caps:normal;font-variant-numeric:normal;font-feature-settings:normal;text-align:start;letter-spacing:0px;word-spacing:0px;writing-mode:lr-tb;text-anchor:start;fill:#000000;fill-opacity:1;stroke:none;stroke-width:1.13927829px;stroke-linecap:butt;stroke-linejoin:miter;stroke-opacity:1"
         d="m 316.772,475.65641 h -3.06666 c -7.66667,41.79414 -30.05334,65.27848 -53.66667,65.27848 H 230.292 V 345.49747 c 0.30667,-11.94119 7.36,-21.09609 16.25334,-21.09609 h 3.37333 v -3.9804 h -98.74666 v 3.9804 h 3.37333 c 8.28,0 15.64,8.75686 15.64,20.69805 v 189.46682 c 0,11.94119 -7.36,20.69806 -15.94667,20.69806 h -3.06666 v 3.98039 h 156.09333 0.61333 z" />
      <path
         inkscape:connector-curvature="0"
         id="path110"
         style="font-style:normal;font-variant:normal;font-weight:900;font-stretch:normal;font-size:306.66665649px;line-height:125%;font-family:Cinzel;-inkscape-font-specification:'Cinzel, Heavy';font-variant-ligatures:normal;font-variant-caps:normal;font-variant-numeric:normal;font-feature-settings:normal;text-align:start;letter-spacing:0px;word-spacing:0px;writing-mode:lr-tb;text-anchor:start;fill:#000000;fill-opacity:1;stroke:none;stroke-width:1px;stroke-linecap:butt;stroke-linejoin:miter;stroke-opacity:1"
         d="m 440.41139,371.87138 c -69.61333,0 -111.32,34.96 -111.32,95.67999 0,60.41333 41.70667,95.68 111.32,95.68 70.22666,0 112.24,-35.26667 112.24,-95.68 0,-60.71999 -42.01334,-95.67999 -112.24,-95.67999 z m 0,177.25332 c -31.89333,0 -48.76,-30.05333 -48.76,-81.57333 0,-51.82666 16.86667,-81.87999 48.76,-81.87999 32.50666,0 49.06666,30.05333 49.06666,81.87999 0,51.52 -16.56,81.57333 -49.06666,81.57333 z" />
      <path
         inkscape:connector-curvature="0"
         id="path112"
         style="font-style:normal;font-variant:normal;font-weight:900;font-stretch:normal;font-size:306.66665649px;line-height:125%;font-family:Cinzel;-inkscape-font-specification:'Cinzel, Heavy';font-variant-ligatures:normal;font-variant-caps:normal;font-variant-numeric:normal;font-feature-settings:normal;text-align:start;letter-spacing:0px;word-spacing:0px;writing-mode:lr-tb;text-anchor:start;fill:#000000;fill-opacity:1;stroke:none;stroke-width:0.75211817px;stroke-linecap:butt;stroke-linejoin:miter;stroke-opacity:1"
         d="m 763.93032,456.66465 v 1.73475 h 2.45334 c 7.36,0 12.57333,2.94909 10.12,8.67379 L 757.79699,504.197 705.05033,454.40946 h -2.14667 l -44.77333,48.22626 -27.90667,-36.25643 c -3.06666,-5.20428 3.68,-7.97989 10.12,-7.97989 h 2.45333 v -1.73475 H 542.21033 v 1.73475 h 2.14667 c 7.66666,0 17.48,2.08171 22.38666,8.15336 l 65.93333,95.75861 h 2.45334 c 0,-8.15336 7.36,-16.13324 7.36,-16.13324 l 41.4,-44.06284 62.86666,60.19608 h 2.76 c -1.22667,-8.32684 3.68,-16.82715 3.68,-16.82715 l 45.08,-79.97231 c 4.90667,-5.37775 15.02667,-7.11251 22.08,-7.11251 h 2.45333 v -1.73475 z" />
    </g>
    <g
       transform="matrix(0.68645724,0,0,0.68645724,364.36385,90.486579)"
       id="g137">
      <path
         inkscape:connector-curvature="0"
         id="path93"
         style="font-style:normal;font-variant:normal;font-weight:900;font-stretch:normal;font-size:306.66665649px;line-height:125%;font-family:Cinzel;-inkscape-font-specification:'Cinzel, Heavy';font-variant-ligatures:normal;font-variant-caps:normal;font-variant-numeric:normal;font-feature-settings:normal;text-align:start;letter-spacing:0px;word-spacing:0px;writing-mode:lr-tb;text-anchor:start;fill:#000000;fill-opacity:1;stroke:none;stroke-width:0.62107939px;stroke-linecap:butt;stroke-linejoin:miter;stroke-opacity:1"
         d="m 411.14595,-1.2889359 v 1.18293221 h 2.45333 c 7.36,0 12.57333,2.01099169 10.12,5.91467659 L 405.01261,31.123475 352.26595,-2.8267524 h -2.14667 L 305.34595,30.058833 277.43928,5.3354978 c -3.06666,-3.5488046 3.68,-5.44150149 10.12,-5.44150149 h 2.45334 V -1.2889359 H 189.42595 v 1.18293221 h 2.14667 c 7.66667,0 17.48,1.41952169 22.38667,5.55979619 L 279.89262,70.75179 h 2.45333 c 0,-5.55979 7.36,-11.001294 7.36,-11.001294 l 41.4,-30.046543 62.86666,41.047837 h 2.76 c -1.22666,-5.678088 3.68,-11.474469 3.68,-11.474469 l 45.08,-54.5332894 c 4.90667,-3.6670992 15.02667,-4.85003529 22.08,-4.85003529 h 2.45333 V -1.2889359 Z" />
      <path
         inkscape:connector-curvature="0"
         id="path95"
         style="font-style:normal;font-variant:normal;font-weight:900;font-stretch:normal;font-size:306.66665649px;line-height:125%;font-family:Cinzel;-inkscape-font-specification:'Cinzel, Heavy';font-variant-ligatures:normal;font-variant-caps:normal;font-variant-numeric:normal;font-feature-settings:normal;text-align:start;letter-spacing:0px;word-spacing:0px;writing-mode:lr-tb;text-anchor:start;fill:#000000;fill-opacity:1;stroke:none;stroke-width:0.85592318px;stroke-linecap:butt;stroke-linejoin:miter;stroke-opacity:1"
         d="m 573.38218,-2.5200824 c -69.61333,0 -111.31999,25.6118504 -111.31999,70.0955834 0,44.259079 41.70666,70.095589 111.31999,70.095589 70.22667,0 112.24,-25.83651 112.24,-70.095589 0,-44.483733 -42.01333,-70.0955834 -112.24,-70.0955834 z m 0,129.8565724 c -31.89333,0 -48.75999,-22.01721 -48.75999,-59.760989 0,-37.96844 16.86666,-59.985642 48.75999,-59.985642 32.50667,0 49.06667,22.017202 49.06667,59.985642 0,37.743779 -16.56,59.760989 -49.06667,59.760989 z" />
      <path
         inkscape:connector-curvature="0"
         id="path97"
         style="font-style:normal;font-variant:normal;font-weight:900;font-stretch:normal;font-size:306.66665649px;line-height:125%;font-family:Cinzel;-inkscape-font-specification:'Cinzel, Heavy';font-variant-ligatures:normal;font-variant-caps:normal;font-variant-numeric:normal;font-feature-settings:normal;text-align:start;letter-spacing:0px;word-spacing:0px;writing-mode:lr-tb;text-anchor:start;fill:#000000;fill-opacity:1;stroke:none;stroke-width:1.01858723px;stroke-linecap:butt;stroke-linejoin:miter;stroke-opacity:1"
         d="m 700.19843,0.8532476 v 3.1817315 h 3.68 c 8.28,0 15.33333,6.9997949 15.33333,16.8631559 V 172.03021 c 0,9.54519 -7.35999,16.54499 -15.63999,16.54499 h -3.37334 v 3.18172 h 98.44 v -3.18172 h -3.06667 c -6.74666,0 -15.94666,-5.09077 -15.94666,-16.22681 V 16.125543 h 5.82666 c 1.53334,0 25.45334,-1.590861 27.29334,34.680839 0.30666,5.7271 -0.30667,8.908831 -0.30667,10.181526 -2.76,26.726513 -13.18667,34.999004 -23.30667,34.999004 h -1.53333 v 2.227216 c 1.53333,0.954516 7.05333,3.181722 10.12,18.135852 3.06667,15.59046 5.52,27.36286 14.41333,43.27149 17.78667,31.49911 34.96,32.13545 68.08,32.13545 h 35.88 v -3.18172 c -9.81333,0 -15.64,-1.59087 -27.29333,-20.04489 -9.50667,-14.95411 -15.02667,-27.9992 -19.32,-35.95352 -5.21334,-9.86336 -17.78667,-24.18114 -33.42667,-28.31739 31.89333,-5.727109 39.25333,-31.499105 39.25333,-50.907639 0,-44.5441898 -38.94666,-52.4985134 -69.91999,-52.4985134 z" />
      <path
         inkscape:connector-curvature="0"
         id="path99"
         style="font-style:normal;font-variant:normal;font-weight:900;font-stretch:normal;font-size:306.66665649px;line-height:125%;font-family:Cinzel;-inkscape-font-specification:'Cinzel, Heavy';font-variant-ligatures:normal;font-variant-caps:normal;font-variant-numeric:normal;font-feature-settings:normal;text-align:start;letter-spacing:0px;word-spacing:0px;writing-mode:lr-tb;text-anchor:start;fill:#000000;fill-opacity:1;stroke:none;stroke-width:1.11280859px;stroke-linecap:butt;stroke-linejoin:miter;stroke-opacity:1"
         d="m 989.94207,27.148275 c 0.30667,-13.291543 9.20001,-23.9247843 19.62673,-23.9247843 h 3.9867 V -0.57409836 H 903.76874 V 3.2234907 h 3.68 c 10.73333,0 19.32,10.6332413 19.62667,23.9247843 V 237.91422 c 0,12.9118 -8.89334,23.54505 -19.62667,23.54505 h -3.68 l -0.30667,3.79756 h 110.09343 v -3.79756 h -3.9867 c -10.73342,0 -19.32006,-10.63325 -19.62673,-23.54505 z m 60.10673,72.154113 51.8267,-77.470727 c 7.6666,-11.392755 19.9333,-18.6081703 33.7333,-18.9879332 h 1.2266 v -3.41782616 h -73.9066 V 2.8437278 h 2.76 c 8.5867,0 12.5733,9.4939672 7.6667,17.8486582 l -73.2934,123.801264 c -0.30672,0.75952 32.8134,66.83749 42.32,82.78734 23.92,40.2544 69.92,37.97584 78.8133,37.97584 h 33.12 v -3.79756 c -12.2666,-0.37977 -22.6933,-9.87374 -32.8133,-28.48189 z" />
    </g>
  </g>
</svg>
