<?xml version="1.0" encoding="UTF-8" standalone="no"?>
<!-- Created with Inkscape (http://www.inkscape.org/) -->

<svg
   xmlns:dc="http://purl.org/dc/elements/1.1/"
   xmlns:cc="http://creativecommons.org/ns#"
   xmlns:rdf="http://www.w3.org/1999/02/22-rdf-syntax-ns#"
   xmlns:svg="http://www.w3.org/2000/svg"
   xmlns="http://www.w3.org/2000/svg"
   xmlns:sodipodi="http://sodipodi.sourceforge.net/DTD/sodipodi-0.dtd"
   xmlns:inkscape="http://www.inkscape.org/namespaces/inkscape"
   id="svg3443"
   sodipodi:version="0.32"
   inkscape:version="0.92.3 (unknown)"
   width="1325.28"
   height="790.68402"
   version="1.0"
   sodipodi:docname="workOflow-logo-plain-2letters-void-rect.svg"
   inkscape:output_extension="org.inkscape.output.svg.inkscape">
  <metadata
     id="metadata3448">
    <rdf:RDF>
      <cc:Work
         rdf:about="">
        <dc:format>image/svg+xml</dc:format>
        <dc:type
           rdf:resource="http://purl.org/dc/dcmitype/StillImage" />
        <dc:title></dc:title>
      </cc:Work>
    </rdf:RDF>
  </metadata>
  <defs
     id="defs3446">
    <inkscape:perspective
       sodipodi:type="inkscape:persp3d"
       inkscape:vp_x="0 : 526.18109 : 1"
       inkscape:vp_y="0 : 1000 : 0"
       inkscape:vp_z="744.09448 : 526.18109 : 1"
       inkscape:persp3d-origin="372.04724 : 350.78739 : 1"
       id="perspective3450" />
  </defs>
  <sodipodi:namedview
     inkscape:window-height="1176"
     inkscape:window-width="1559"
     inkscape:pageshadow="2"
     inkscape:pageopacity="0.0"
     guidetolerance="10.0"
     gridtolerance="10.0"
     objecttolerance="10.0"
     borderopacity="1.0"
     bordercolor="#666666"
     pagecolor="#ffffff"
     id="base"
     showgrid="false"
     inkscape:zoom="0.58040203"
     inkscape:cx="462.84154"
     inkscape:cy="477.90752"
     inkscape:window-x="189"
     inkscape:window-y="24"
     inkscape:current-layer="svg3443"
     inkscape:window-maximized="1"
     inkscape:object-nodes="true"
     fit-margin-top="0"
     fit-margin-left="0"
     fit-margin-right="0"
     fit-margin-bottom="0"
     inkscape:showpageshadow="false"
     inkscape:object-paths="true"
     inkscape:snap-global="true"
     showguides="false" />
  <g
     id="g916"
     transform="translate(23.822705,9)">
    <path
       sodipodi:nodetypes="ccccssssccccscccsccccsccccsccc"
       d="M 538.79804,382.16444 C 349.32846,350.97383 203.35805,314.42144 141.42269,286.71443 L 25.844155,217.79668 0,227.56064 l 19.642276,8.61472 c 64.9071,28.46698 54.219117,117.6213 54.219117,139.7345 v 350.65227 c 0,21.4814 -18.322362,39.8038 -40.435568,39.8038 h -7.58167 v 6.3181 H 252.03065 v -6.3181 h -8.21349 c -22.1132,0 -39.80377,-18.3224 -40.43556,-39.8038 V 569.87426 h 70.13045 c 39.17194,1.2636 67.60322,29.6949 67.60322,69.49862 v 2.5272 h 6.31803 v -175.642 h -6.31803 v 3.15906 c 0,39.80373 -28.43128,68.23499 -68.86685,68.86681 H 203.3816 V 362.01012 l 112.28715,24.12121 c 49.91266,1.89542 116.1986,35.87717 141.0017,68.35121 l 31.01298,40.60447 13.20985,21.30711 z"
       style="font-style:normal;font-variant:normal;font-weight:900;font-stretch:normal;font-size:306.66665649px;line-height:125%;font-family:Cinzel;-inkscape-font-specification:'Cinzel, Heavy';font-variant-ligatures:normal;font-variant-caps:normal;font-variant-numeric:normal;font-feature-settings:normal;text-align:start;letter-spacing:0px;word-spacing:0px;writing-mode:lr-tb;text-anchor:start;fill:none;fill-opacity:1;stroke:#000000;stroke-width:18;stroke-linecap:butt;stroke-linejoin:miter;stroke-miterlimit:4;stroke-dasharray:none;stroke-opacity:1"
       id="path53"
       inkscape:connector-curvature="0" />
    <path
       sodipodi:nodetypes="ccsccccccsccccsccccccccsccc"
       d="m 1151.1836,9.56541 v 7.35799 h 5.8865 c 17.6591,0 30.1676,12.50863 24.2813,36.79007 L 1136.4676,211.17486 1009.9098,0 h -5.1506 L 893.88641,164.92495 830.3744,50.77026 C 823.0163,28.69624 839.204,16.9234 854.6558,16.9234 h 5.8864 V 9.56541 H 619.19946 v 7.35799 h 5.15061 c 18.39504,0 117.75019,76.02442 129.52301,101.77747 51.6362,60.45518 83.22328,98.37171 107.65619,156.82357 v 0 l 97.61033,-73.17917 175.7167,231.29461 c 13.4416,14.90122 34.2339,62.2939 98.737,18.85951 -79.8265,-31.54479 -68.5351,-104.10864 -68.5351,-104.10864 l 68.5351,-301.29948 c 11.7728,-22.80983 36.0543,-30.16787 52.9776,-30.16787 h 5.8864 V 9.56541 Z"
       style="font-style:normal;font-variant:normal;font-weight:900;font-stretch:normal;font-size:306.66665649px;line-height:125%;font-family:Cinzel;-inkscape-font-specification:'Cinzel, Heavy';font-variant-ligatures:normal;font-variant-caps:normal;font-variant-numeric:normal;font-feature-settings:normal;text-align:start;letter-spacing:0px;word-spacing:0px;writing-mode:lr-tb;text-anchor:start;fill:none;fill-opacity:1;stroke:#000000;stroke-width:18;stroke-linecap:butt;stroke-linejoin:miter;stroke-miterlimit:4;stroke-dasharray:none;stroke-opacity:1"
       id="path40"
       inkscape:connector-curvature="0" />
    <g
       id="g904">
      <path
         style="fill:#3b3bde;fill-opacity:1;stroke:none;stroke-width:1.24754155"
         d="m 1050.5992,526.29002 51.9109,63.4436 c 50.3443,36.93912 135.9673,-10.16747 135.9673,-10.16747 v -63.81688 c -59.3757,-0.14823 -64.9947,26.18093 -179.7013,-0.4447 z"
         id="path3793-2"
         inkscape:connector-curvature="0"
         sodipodi:nodetypes="cccccc" />
      <path
         style="fill:#3b3bde;fill-opacity:1;stroke:#3b3bde;stroke-width:22;stroke-miterlimit:4;stroke-dasharray:none;stroke-opacity:1"
         d="m 744.53458,375.89287 c 46.29062,17.25082 44.69355,-11.89848 58.10262,-16.98612 22.23483,-8.43629 56.32465,15.1246 81.85245,15.53177 L 739.6043,302.36734 Z"
         id="path3793"
         inkscape:connector-curvature="0"
         sodipodi:nodetypes="csccc" />
      <path
         style="fill:#ff9665;fill-opacity:1;fill-rule:evenodd;stroke:#ff9665;stroke-width:18;stroke-miterlimit:4;stroke-dasharray:none;stroke-opacity:1"
         d="m 1058.7761,515.30457 c -22.802,-26.39744 -59.97828,-63.69188 -89.15923,-80.83084 -11.78485,-6.92164 -20.90911,-11.85871 -28.78806,-14.28661 -2.19555,-0.67655 -8.6832,-1.41955 -10.6145,-1.8213 -21.66749,-4.50742 -27.59177,7.12642 -28.73549,12.48783 -3.20913,15.04357 11.95725,39.73142 112.46488,98.24712 22.4713,13.08284 79.3933,56.59432 88.5664,60.63285 l 1.2334,-5.55976 c 0,0 -34.3363,-41.51209 -49.3751,-62.89708 z"
         id="path3791"
         sodipodi:nodetypes="cssssscccc"
         inkscape:export-filename="/home/olivier/Desktop/text3995.png"
         inkscape:export-xdpi="845.21002"
         inkscape:export-ydpi="845.21002"
         inkscape:connector-curvature="0" />
      <path
         inkscape:connector-curvature="0"
         inkscape:export-ydpi="845.21002"
         inkscape:export-xdpi="845.21002"
         inkscape:export-filename="/home/olivier/Desktop/text3995.png"
         sodipodi:nodetypes="ccscccscc"
         id="path3021"
         d="m 930.86926,398.89388 8.63204,-23.29262 C 897.53857,345.84612 706.08962,230.58551 468.06713,146.02881 c -5.01974,-1.78326 -16.92599,2.5667 -22.05621,1.24787 C 337.80988,108.10723 20.317806,55.210616 30.322279,152.63336 47.570954,231.10521 436.7,295.12506 744.53458,375.89287 c 0,0 -0.37492,-10.26108 -2.30036,-21.42243 -3.58329,-20.77156 0.70312,-42.37723 49.68793,-13.69078 49.02337,13.81462 138.94711,58.11422 138.94711,58.11422 z"
         style="fill:#ff9665;fill-opacity:1;fill-rule:evenodd;stroke:#ff9665;stroke-width:22;stroke-miterlimit:4;stroke-dasharray:none;stroke-opacity:1" />
      <path
         style="fill:#ffffff;fill-rule:evenodd;stroke:#000000;stroke-width:18;stroke-linecap:butt;stroke-linejoin:miter;stroke-miterlimit:4;stroke-dasharray:none;stroke-opacity:1"
         d="M 934.49497,389.66468 C 778.74818,301.35277 545.22926,163.49819 282.06442,117.08049 59.266463,77.78279 26.206596,133.58273 31.186928,153.03748 48.527942,220.77694 442.65603,293.46415 742.6785,364.99835 c 0,0 -0.97412,-41.19663 31.01519,-33.13552 47.26166,11.90963 160.91509,57.21632 160.80128,57.80185 z"
         id="path3454"
         sodipodi:nodetypes="csscsc"
         inkscape:export-filename="/home/olivier/Desktop/text3995.png"
         inkscape:export-xdpi="845.21002"
         inkscape:export-ydpi="845.21002"
         inkscape:connector-curvature="0" />
      <path
         inkscape:connector-curvature="0"
         inkscape:export-ydpi="845.21002"
         inkscape:export-xdpi="845.21002"
         inkscape:export-filename="/home/olivier/Desktop/text3995.png"
         sodipodi:nodetypes="csssc"
         id="path3017"
         d="m 1104.1205,585.9207 c 0,0 -65.0703,-105.8578 -141.53217,-149.61156 -48.71138,-27.87412 -58.51233,-11.0572 -60.45753,-4.40919 -1.68321,5.75263 7.08539,33.1052 105.6495,89.50653 33.9744,19.44121 96.5468,63.93211 96.3402,64.51422 z"
         style="fill:#ffffff;fill-rule:evenodd;stroke:#000000;stroke-width:12;stroke-linecap:butt;stroke-linejoin:miter;stroke-miterlimit:4;stroke-dasharray:none;stroke-opacity:1" />
      <path
         style="fill:#3b3bde;fill-opacity:1;stroke:#3b3bde;stroke-width:22;stroke-miterlimit:4;stroke-dasharray:none;stroke-opacity:1"
         d="m 930.86926,398.89388 c 31.97687,12.72308 131.36014,89.74654 193.08924,120.85626 16.9373,8.53593 42.9597,10.44251 54.7774,11.05682 l 9.1126,-5.43591 c -16.3827,-3.21583 -35.0954,0.91925 -56.3404,-12.02316 C 1072.6055,477.46457 994.43197,407.75052 939.5013,375.60126 Z"
         id="path3793-3"
         inkscape:connector-curvature="0"
         sodipodi:nodetypes="csccscc" />
    </g>
  </g>
</svg>
