<svg version="1" xmlns="http://www.w3.org/2000/svg" width="1333.333" height="1333.333" viewBox="0 0 1000.000000 1000.000000"><path d="M153.4 67.5c-7.1 5.2-17.6 12.9-23.3 17.1-8.5 6.3-10.6 7.4-11.5 6.3-.6-.8-4.5-4.3-8.6-7.9-19.9-17.3-20.5-17.9-18.7-19.8.9-.8 4.1-1.8 7.4-2.2 3.2-.4 5.6-.9 5.3-1-1.1-.6-104-.5-104 .1 0 .3 3.6.9 8 1.2 4.5.4 10 1.5 12.3 2.5 3 1.4 14.2 11.7 38.6 35.8 18.8 18.6 34.8 34 35.5 34.2.7.2 1.9-1 2.5-2.6 1.8-4.2 5.5-7.5 23.6-20.5 8.8-6.4 16.5-12 17.1-12.5.5-.5 2.9-2.2 5.2-3.7l4.2-2.7 31.7 20.8c28.2 18.4 38.1 24.1 36 20.7-1.6-2.6 2.9-10.2 14.5-24.1 6.8-8.2 13.8-16.7 15.6-19 1.8-2.2 4.4-5.3 5.8-6.9 1.3-1.5 5.2-6.3 8.7-10.5 7.2-8.9 10.6-10.6 23-11.5 15.3-1.1 7.1-1.8-22.3-1.8-16.5 0-30 .3-30 .7 0 .5 1.5.8 3.4.8 4.6 0 9.6 1.9 9.6 3.7 0 1.1-14 21.3-19.5 28.1-.2.2-12.6-7.6-27.6-17.2-15-9.7-27.8-17.6-28.4-17.6-.7 0-7 4.3-14.1 9.5zM380.7 58.6c-.1.1-3.1.5-6.7.8-11.8 1.1-14.8 1.6-23.7 3.6-16.8 3.9-32.1 10.1-41.1 16.7-6 4.3-15.7 14.5-18.6 19.5-2.8 4.8-6.1 13.3-7.1 18.4-2 9.9-.8 26.3 2.6 35.4 7 18.9 25.5 34.1 51.4 42.3 18.1 5.7 34.5 7.9 59.5 7.9 20.5 0 40.5-2 52.5-5.4 2.2-.6 4.5-1.2 5-1.4.6-.1 3.9-1.2 7.5-2.4 34.3-11.9 53.1-36 51.4-66-.7-13.7-3.2-21.3-10.6-32.2-13-19.4-41.1-32-80.8-36.5-3.9-.4-40.9-1.1-41.3-.7zm29.5 11.5c20.8 4.3 33.9 20.8 37.3 46.9.7 5.9.7 21.1 0 27.5-3.8 31.5-22.6 49-51.6 48-16.8-.5-27.6-5.6-36.3-16.9-5.2-6.8-7.4-11.5-9.7-20.4-5.2-20.6-2.5-50.6 5.9-64.2 7.2-11.6 18.3-19.1 31.2-21.3 5.2-.9 18.1-.7 23.2.4zM739.9 60.4c-1 1.1-.3 3.6.9 3.7 7.8.5 11.2 1.8 15.6 6.4 1.9 1.9 4.3 5.6 5.3 8.3 1.7 4.5 1.8 10.6 1.8 119.2 0 107.3-.1 114.8-1.8 119.1-3.2 8.4-10.2 14-17.8 14.3-2.2 0-4 .4-4 .8-.1.5-.2 1.3-.3 2-.1 1 12.7 1.2 56.7 1.3H853v-2.2c0-1.8-.5-2.1-3.2-1.9-8.8.8-18-7.5-20.3-18.4-1.3-6-.9-226.9.4-231.7 1.4-5.3 6.6-12.1 11-14.7 1.9-1.1 5.3-2.1 7.5-2.2 3.2-.1 4.2-.6 4.4-2.1.3-1.9-.8-2-56.3-2-31.1 0-56.5.1-56.6.1z"/><path d="M904.5 61.9c.2 1.6.5 1.7 4.6 2 1.2 0 3.5 1.5 5.1 3.3 2.7 2.9 3 3.7 2.6 8.3-.3 3.2-1.6 6.8-3.5 10-5.7 9.5-38.5 64.7-40.3 67.9-3.2 5.5-30.1 51-32.1 54.3l-2 3.2 16.9 33.3c25.9 51 29.3 56.8 38.6 66.4 12.6 12.9 27.2 20.1 47.6 23.5 4.4.7 17.7 1.2 32 1.3 23.9.1 24.5 0 24.5-1.9 0-1.3-.7-2-2.1-2.1-4.2-.2-13-5.2-17.7-10-8-8.4-6.7-6.1-39.7-67.9-19.8-37.2-25-46.7-30.5-57-3.3-6.2-10.3-19.3-14.9-27.9l-2.7-5 27.8-41.4c15.2-22.7 29.9-43.5 32.5-46.1 5.8-5.8 13.8-9.9 22.7-11.5 4.4-.8 6.7-1.7 6.9-2.7.2-1.4-4.3-1.6-38.2-1.6-34.7 0-38.4.1-38.1 1.6zM531.8 61.8c-3.9.5-3.7 3.2.2 3.2 4.1 0 9 2.2 11.8 5.3 4.8 5.1 4.8 5.9 4.7 92.2-.1 72.4-.3 81.3-1.7 84-3.2 5.9-8.6 9.5-14.2 9.5-2.8 0-3.6.4-3.6 1.7 0 1.7 3.1 1.8 50.8 1.8 43.3-.1 50.7-.3 50.7-1.5 0-1-1.7-1.7-4.9-2.3-6.1-1-10.1-3.7-12.6-8.7-1.9-3.8-2-6.2-2-86.4 0-65.1.3-82.5 1.3-82.9 2.6-1 11.5.6 16.5 3 10.6 5 16.2 17.4 16.3 35.8 0 23.1-9 41.6-21 43.2-2.3.3-4.4.9-4.6 1.3-.2.4 1.2 2.5 3.3 4.7 4 4.2 4.8 6.4 8.7 24.1 6.3 28.1 18.7 50.3 34 60.8 4.4 3 13 6.1 20.5 7.5 7.7 1.3 62.7 1.9 65.3.7 2.2-1.1 1.3-2.8-1.6-2.8-11.9 0-21.5-10.8-37.9-42.8-4.4-8.6-9.2-17.5-10.6-19.7-5.9-9.2-20.4-21.3-27.9-23.1-3.5-.9-2.8-1.8 2.2-3.2 22.3-6 35.7-27 34.2-53.7-.6-10.3-1.1-13-3.4-18.8-7.6-19.4-27.5-30.6-57.2-32.3-11-.6-112.5-1.1-117.3-.6zM76.9 307.4c-.2.2-3.6.6-7.4 1-18.6 1.7-38.2 6.7-47.9 12.1C10 327 4 335.1 2.2 346.3c-.8 5.1-.6 6.3 1.4 10.8 6.2 13.2 26 27.1 58.9 41.1 26.8 11.4 53.1 20.2 107.5 35.8 8.6 2.5 34.4 9.3 54.5 14.4 27.5 6.9 93.9 23.1 98.6 23.9 1.3.3 4.2 1 6.4 1.5 2.2.6 5.1 1.3 6.5 1.6 1.4.3 13.3 3 26.5 6.1 13.2 3.1 24.7 5.8 25.5 6 3.4.7 58.7 13.7 85 20 8.5 2 16.2 3.8 17 4 .8.2 9.2 2.2 18.5 4.5 9.4 2.3 17.7 4.3 18.5 4.5 5.5 1.2 62.8 15.8 68.5 17.5 10.1 3 10.4 3.1 16.7 3.1 8.1.1 13.5-2.7 19.8-10.5 4.1-5 6.1-6.7 9.7-7.8 4.1-1.3 11.6-1.5 16.3-.4 4.5 1 8.9 2.3 22 6.6 8 2.7 16.1 5.2 18 5.5 4.4.9 16 6.1 47.5 21.1 12.6 6 24.8 13.6 74 46.4 62 41.4 82 53.3 96.5 57.7l7.5 2.3-10.5-.6c-10.3-.5-13.9-.8-21-1.9-1.9-.3-5.3-.7-7.5-1-2.2-.3-10.4-1.8-18.3-3.4l-14.2-2.8-6.3-6.9c-26.9-30-55-53.8-77.1-65.4-22-11.5-40.4-11.7-45.9-.3-1.9 3.9-2 4.8-.9 9 2.6 9.6 16.5 24.9 33.2 36.3 1.9 1.3 3.7 2.7 4 3 1.1 1.5 25.6 17.4 41.5 26.9 22.8 13.8 27.1 16.7 55 36.6 44.3 31.5 47.9 33.1 75 32.9 10.7-.1 16.1-.6 23-2.3 13.2-3.1 26.4-7.6 37.1-12.6l9.4-4.4v-52.7l-5.3.2c-6 .2-18.9 1.4-19.7 1.9-.3.1-2.7.6-5.5.9-2.7.4-5.8.9-6.7 1.2-11.5 3.5-29.4 2.8-41.5-1.6-5.5-2.1-16.5-8.6-29.8-17.8-8.7-6-49.7-36.3-50.5-37.3-1.8-2.2-60.2-45.3-72-53-32.6-21.5-41.7-27.3-58-37-21.2-12.5-44.2-25.6-64.5-36.5-4.9-2.6-11.7-6.3-15-8.1-28.8-15.8-108.2-53.9-143-68.8-6-2.6-12.3-5.3-14-6-20.4-9.2-89.8-36.4-107.8-42.3-3.8-1.2-6.2-1.3-12.2-.6-7.2.9-7.6.9-22.1-3.8-16-5.2-66-17.7-80.4-20.2-1.4-.2-7.4-1.3-13.5-2.4-16-3-34.3-5.9-48.5-7.7-11.7-1.5-17.9-2.3-24-3.1-1.4-.1-6.8-.6-12-.9-5.2-.4-10.6-.9-12-1.2-2.7-.6-64.6-1.4-65.1-.9zM191.3 691.1c-4 .9-9.8 2-13 2.4-3.2.4-6.7.8-7.8 1-1.1.1-39.9.3-86.2.4-81.2.1-84.3.2-84.3 1.9 0 1.6.9 1.9 5.1 2.1 8.7.3 16.3 5.3 19.9 13.2 1.9 4.3 2 6.6 2 105.4 0 96.1-.1 101.2-1.9 105-4.2 9-11.6 13.7-21.7 13.7-2.6 0-3.4.4-3.4 1.8 0 1.7 3 1.8 63.5 1.8 58.6 0 63.5-.1 63.5-1.7 0-1.2-1-1.7-4.2-1.8-9.6-.4-17.2-5.5-21-14.1-1.8-4.1-2-7.1-1.9-48.8 0-24.4.2-44.7.4-45.2.3-.4 10.2-.6 22-.6 23.2.2 29 1.1 37.4 6.1 9 5.3 16.3 16.8 17.1 27.3.4 5.2 1.6 7.5 3.4 6.4.4-.3.8-22.2.8-48.8 0-42.6-.2-48.3-1.5-48.3-1.6 0-2 1.3-2.9 9-1.6 13.6-13.8 26.4-28.3 29.8-5.4 1.2-47.2 1.8-48 .6-.3-.5-.6-73.5-.3-93.5v-3.4l30.8.4c34.3.5 36.5.8 47.2 7.7 10.2 6.7 16.6 18.8 17.5 33.1.3 4.9.7 6.6 1.9 6.8.9.2 1.6 0 1.7-.5.4-3.3.3-69.6-.1-70.2-.3-.4-3.7.1-7.7 1zM221 734.7c0 1.5 1 1.8 5.2 2 6.5.3 11.9 3.9 14.8 9.7 2 4.2 2 5.8 2 89.7 0 80.5-.1 85.6-1.9 89.4-2.6 5.8-7.9 9.5-14.6 10.2-4.2.4-5.5 1-5.5 2.2 0 1.5 7.9 1.6 90.4 1.6 49.8 0 90.7-.2 90.9-.5.3-.3.8-2.8 1.1-5.5.4-2.8 1.1-7.7 1.6-11s1.1-8 1.4-10.5c.3-2.5.8-5.4 1-6.5.2-1.1.7-4.3 1-7 .4-2.8.9-6.1 1.1-7.5.2-1.4.6-4.8 1-7.5.4-2.8.8-6.4 1.1-8 .2-1.7.6-4.2 1-5.8.5-2.2.2-2.7-1.4-2.7-1.5 0-2.2 1.1-3.2 4.7-2.9 10.7-10 23.5-18 32.6-3.4 3.9-13.6 11.5-17.9 13.4-12.5 5.3-13.6 5.5-36.8 5.8-19.7.2-22.2.1-22.5-1.4-.2-.9-.3-39.6-.2-86.1.1-93.5-.2-88.8 6.5-95 3.4-3 7.4-4.4 14.5-4.9.7-.1 1.4-.8 1.8-1.6.5-1.3-6.3-1.5-56.9-1.5-54.1 0-57.5.1-57.5 1.7zM542.8 777.5c-.2.1-4.3.5-9.3.8-17.6 1.2-41.4 6.3-54 11.5-14.1 5.9-23.8 12.3-33.3 21.9-5.6 5.8-8.2 9.4-11.6 16.6-5.7 11.8-7.5 20-7.2 33 .5 22.5 8.5 39.2 25.9 53.8 13.4 11.3 37.8 21.3 59.7 24.4 2.4.4 4.7.8 5 1 1.6 1 20.9 2 38.5 2 20 0 33.5-.9 43.2-2.9 1.5-.3 4.4-.8 6.3-1.1 9.4-1.6 27.1-7.5 37-12.5 27.4-13.8 42.2-35.8 42.9-64 .1-4.7.4-8.7.6-8.9.3-.2 2.6.2 5.2.9 5.3 1.4 9.5 4 13.2 7.9 2 2.2 14.3 15.5 23.6 25.6 14.7 16.1 20.4 22.3 23 25 1.7 1.7 7.3 7.8 12.5 13.5 14.3 15.7 14.6 16 16.2 16 .9 0 1.9-1.2 2.3-2.8 1.1-4.7 5.2-9 18.8-19.8 7.3-5.7 13.9-11 14.7-11.7 18.1-14.5 21.4-16.8 22.9-16.4 1.3.3 29.8 20.4 66.7 47 5.6 4 8.4 4.7 8.4 1.9 0-6.7.2-7 46.8-68.5 5.7-7.6 11.7-14.4 13.2-15.2 3.8-2 11.2-3.5 18.9-4.1 8.5-.5 9.1-1.4 1-1.5h-61.3c-3.4.1-1 1.1 3.5 1.5 5.9.5 9.9 2.5 9.9 4.8 0 1-5 9.3-11 18.3l-11.1 16.4-15.7-11.1c-8.6-6.1-18.6-13.2-22.2-15.6-3.6-2.5-10.2-7.2-14.7-10.4-4.4-3.2-8.9-5.8-9.8-5.8-1.3 0-8.9 5.3-11.5 8-.3.3-5 4.1-10.5 8.5-11.9 9.5-10.8 8.6-21.7 17.5-4.7 3.8-9 7-9.5 7s-1.9-1-3-2.2c-1.1-1.3-8.4-8.5-16.2-16.2-7.8-7.6-14-14.3-13.8-15 .7-2.3 6.5-4.2 14.1-4.5 1.1-.1 1.7-.4 1.3-.7-.3-.4-24-.6-52.7-.6h-52l-.6-2.6c-5.7-27.2-21.1-45-49.5-57.1-14.7-6.3-32.9-10.6-53.9-12.7-6-.6-38.7-1.3-39.2-.9zm28.7 13.4c21.5 4.9 35.8 22.8 40.2 50.6 1 6.3 1 30.4 0 37-4.2 27.2-17.4 44.4-38.3 50-8.4 2.3-21.8 2.7-30.6.8-22.2-4.5-37.7-22.5-41.3-47.8-.2-1.1-.6-4-1-6.5-.9-5.6-.9-21.4-.1-29.5 3.3-31.4 19.7-51.6 44.9-55.3 6.9-1 20-.7 26.2.7z"/></svg>